<mxfile host="app.diagrams.net" modified="2024-06-03T03:07:48.765Z" agent="Mozilla/5.0 (Windows NT 10.0; Win64; x64) AppleWebKit/537.36 (KHTML, like Gecko) Chrome/123.0.0.0 Safari/537.36 OPR/109.0.0.0 (Edition Yx GX)" etag="jgvZHDUs0MKTMFEEnPmr" version="24.4.13" type="device">
  <diagram name="Страница — 1" id="GUv76a2tw94iOO4mSpII">
    <mxGraphModel dx="417" dy="740" grid="1" gridSize="10" guides="1" tooltips="1" connect="1" arrows="1" fold="1" page="1" pageScale="1" pageWidth="827" pageHeight="1169" math="0" shadow="0">
      <root>
        <mxCell id="0" />
        <mxCell id="1" parent="0" />
        <mxCell id="sZTKMbok_FqmuFl1ryci-6" style="edgeStyle=orthogonalEdgeStyle;rounded=0;orthogonalLoop=1;jettySize=auto;html=1;exitX=0.5;exitY=1;exitDx=0;exitDy=0;exitPerimeter=0;entryX=0.5;entryY=0;entryDx=0;entryDy=0;" edge="1" parent="1" source="sZTKMbok_FqmuFl1ryci-1" target="sZTKMbok_FqmuFl1ryci-5">
          <mxGeometry relative="1" as="geometry" />
        </mxCell>
        <mxCell id="sZTKMbok_FqmuFl1ryci-1" value="Начало" style="strokeWidth=2;html=1;shape=mxgraph.flowchart.terminator;whiteSpace=wrap;" vertex="1" parent="1">
          <mxGeometry x="330" y="30" width="70" height="40" as="geometry" />
        </mxCell>
        <mxCell id="sZTKMbok_FqmuFl1ryci-9" style="edgeStyle=orthogonalEdgeStyle;rounded=0;orthogonalLoop=1;jettySize=auto;html=1;exitX=0.5;exitY=1;exitDx=0;exitDy=0;entryX=0.5;entryY=0;entryDx=0;entryDy=0;" edge="1" parent="1" source="sZTKMbok_FqmuFl1ryci-2" target="sZTKMbok_FqmuFl1ryci-8">
          <mxGeometry relative="1" as="geometry" />
        </mxCell>
        <mxCell id="sZTKMbok_FqmuFl1ryci-2" value="Получение текста" style="shape=parallelogram;html=1;strokeWidth=2;perimeter=parallelogramPerimeter;whiteSpace=wrap;rounded=1;arcSize=12;size=0.23;" vertex="1" parent="1">
          <mxGeometry x="315" y="170" width="100" height="40" as="geometry" />
        </mxCell>
        <mxCell id="sZTKMbok_FqmuFl1ryci-7" style="edgeStyle=orthogonalEdgeStyle;rounded=0;orthogonalLoop=1;jettySize=auto;html=1;exitX=0.5;exitY=1;exitDx=0;exitDy=0;entryX=0.5;entryY=0;entryDx=0;entryDy=0;" edge="1" parent="1" source="sZTKMbok_FqmuFl1ryci-5" target="sZTKMbok_FqmuFl1ryci-2">
          <mxGeometry relative="1" as="geometry" />
        </mxCell>
        <mxCell id="sZTKMbok_FqmuFl1ryci-5" value="&lt;div&gt;b = 1600&lt;/div&gt;c = 512&lt;div&gt;r = 1088&lt;/div&gt;" style="rounded=1;whiteSpace=wrap;html=1;absoluteArcSize=1;arcSize=14;strokeWidth=2;" vertex="1" parent="1">
          <mxGeometry x="330" y="90" width="70" height="60" as="geometry" />
        </mxCell>
        <mxCell id="sZTKMbok_FqmuFl1ryci-11" style="edgeStyle=orthogonalEdgeStyle;rounded=0;orthogonalLoop=1;jettySize=auto;html=1;exitX=0.5;exitY=1;exitDx=0;exitDy=0;entryX=0.5;entryY=0;entryDx=0;entryDy=0;" edge="1" parent="1" source="sZTKMbok_FqmuFl1ryci-8" target="sZTKMbok_FqmuFl1ryci-10">
          <mxGeometry relative="1" as="geometry" />
        </mxCell>
        <mxCell id="sZTKMbok_FqmuFl1ryci-8" value="Инициализация начального состояния A - матрицы нулей&lt;div&gt;5x5x64&lt;/div&gt;" style="rounded=1;whiteSpace=wrap;html=1;absoluteArcSize=1;arcSize=14;strokeWidth=2;" vertex="1" parent="1">
          <mxGeometry x="314" y="230" width="100" height="90" as="geometry" />
        </mxCell>
        <mxCell id="sZTKMbok_FqmuFl1ryci-13" style="edgeStyle=orthogonalEdgeStyle;rounded=0;orthogonalLoop=1;jettySize=auto;html=1;exitX=0.5;exitY=1;exitDx=0;exitDy=0;entryX=0.5;entryY=0;entryDx=0;entryDy=0;" edge="1" parent="1" source="sZTKMbok_FqmuFl1ryci-10" target="sZTKMbok_FqmuFl1ryci-12">
          <mxGeometry relative="1" as="geometry" />
        </mxCell>
        <mxCell id="sZTKMbok_FqmuFl1ryci-10" value="Дополнение сообщения" style="rounded=1;whiteSpace=wrap;html=1;absoluteArcSize=1;arcSize=14;strokeWidth=2;" vertex="1" parent="1">
          <mxGeometry x="315" y="340" width="100" height="40" as="geometry" />
        </mxCell>
        <mxCell id="sZTKMbok_FqmuFl1ryci-12" value="Разделение сообщения на блоки по r бит" style="rounded=1;whiteSpace=wrap;html=1;absoluteArcSize=1;arcSize=14;strokeWidth=2;" vertex="1" parent="1">
          <mxGeometry x="315" y="400" width="100" height="50" as="geometry" />
        </mxCell>
        <mxCell id="sZTKMbok_FqmuFl1ryci-17" style="edgeStyle=orthogonalEdgeStyle;rounded=0;orthogonalLoop=1;jettySize=auto;html=1;exitX=0.5;exitY=1;exitDx=0;exitDy=0;exitPerimeter=0;entryX=0.5;entryY=0;entryDx=0;entryDy=0;" edge="1" parent="1" source="sZTKMbok_FqmuFl1ryci-14" target="sZTKMbok_FqmuFl1ryci-16">
          <mxGeometry relative="1" as="geometry" />
        </mxCell>
        <mxCell id="sZTKMbok_FqmuFl1ryci-14" value="Цикл ir&lt;div&gt;от 0 до 24&lt;/div&gt;" style="strokeWidth=2;html=1;shape=mxgraph.flowchart.loop_limit;whiteSpace=wrap;" vertex="1" parent="1">
          <mxGeometry x="312" y="550" width="100" height="50" as="geometry" />
        </mxCell>
        <mxCell id="sZTKMbok_FqmuFl1ryci-16" value="Вызов функций&lt;div&gt;&lt;span style=&quot;line-height: 150%;&quot;&gt;&lt;font style=&quot;font-size: 14px;&quot; face=&quot;Helvetica&quot;&gt;Θ, ρ, π,&lt;br/&gt;χ и ι&lt;/font&gt;&lt;/span&gt;&lt;br&gt;&lt;/div&gt;" style="rounded=1;whiteSpace=wrap;html=1;absoluteArcSize=1;arcSize=14;strokeWidth=2;" vertex="1" parent="1">
          <mxGeometry x="312" y="620" width="106" height="60" as="geometry" />
        </mxCell>
        <mxCell id="sZTKMbok_FqmuFl1ryci-18" value="" style="strokeWidth=2;html=1;shape=mxgraph.flowchart.loop_limit;whiteSpace=wrap;rotation=-180;" vertex="1" parent="1">
          <mxGeometry x="315" y="700" width="100" height="50" as="geometry" />
        </mxCell>
        <mxCell id="sZTKMbok_FqmuFl1ryci-19" style="edgeStyle=orthogonalEdgeStyle;rounded=0;orthogonalLoop=1;jettySize=auto;html=1;exitX=0.5;exitY=1;exitDx=0;exitDy=0;entryX=0.5;entryY=1;entryDx=0;entryDy=0;entryPerimeter=0;" edge="1" parent="1" source="sZTKMbok_FqmuFl1ryci-16" target="sZTKMbok_FqmuFl1ryci-18">
          <mxGeometry relative="1" as="geometry" />
        </mxCell>
        <mxCell id="sZTKMbok_FqmuFl1ryci-20" value="ir++" style="text;html=1;align=center;verticalAlign=middle;resizable=0;points=[];autosize=1;strokeColor=none;fillColor=none;" vertex="1" parent="1">
          <mxGeometry x="345" y="710" width="40" height="30" as="geometry" />
        </mxCell>
        <mxCell id="sZTKMbok_FqmuFl1ryci-21" value="Для каждого блока" style="strokeWidth=2;html=1;shape=mxgraph.flowchart.loop_limit;whiteSpace=wrap;" vertex="1" parent="1">
          <mxGeometry x="312" y="470" width="100" height="60" as="geometry" />
        </mxCell>
        <mxCell id="sZTKMbok_FqmuFl1ryci-22" style="edgeStyle=orthogonalEdgeStyle;rounded=0;orthogonalLoop=1;jettySize=auto;html=1;exitX=0.5;exitY=1;exitDx=0;exitDy=0;entryX=0.5;entryY=0;entryDx=0;entryDy=0;entryPerimeter=0;" edge="1" parent="1" source="sZTKMbok_FqmuFl1ryci-12" target="sZTKMbok_FqmuFl1ryci-21">
          <mxGeometry relative="1" as="geometry" />
        </mxCell>
        <mxCell id="sZTKMbok_FqmuFl1ryci-23" style="edgeStyle=orthogonalEdgeStyle;rounded=0;orthogonalLoop=1;jettySize=auto;html=1;exitX=0.5;exitY=1;exitDx=0;exitDy=0;exitPerimeter=0;entryX=0.5;entryY=0;entryDx=0;entryDy=0;entryPerimeter=0;" edge="1" parent="1" source="sZTKMbok_FqmuFl1ryci-21" target="sZTKMbok_FqmuFl1ryci-14">
          <mxGeometry relative="1" as="geometry" />
        </mxCell>
        <mxCell id="sZTKMbok_FqmuFl1ryci-31" style="edgeStyle=orthogonalEdgeStyle;rounded=0;orthogonalLoop=1;jettySize=auto;html=1;exitX=0.5;exitY=0;exitDx=0;exitDy=0;exitPerimeter=0;entryX=0.5;entryY=0;entryDx=0;entryDy=0;" edge="1" parent="1" source="sZTKMbok_FqmuFl1ryci-24" target="sZTKMbok_FqmuFl1ryci-28">
          <mxGeometry relative="1" as="geometry" />
        </mxCell>
        <mxCell id="sZTKMbok_FqmuFl1ryci-24" value="" style="strokeWidth=2;html=1;shape=mxgraph.flowchart.loop_limit;whiteSpace=wrap;rotation=-180;" vertex="1" parent="1">
          <mxGeometry x="315" y="770" width="100" height="60" as="geometry" />
        </mxCell>
        <mxCell id="sZTKMbok_FqmuFl1ryci-25" value="Следующий&amp;nbsp;&lt;div&gt;блок&lt;/div&gt;" style="text;html=1;align=center;verticalAlign=middle;resizable=0;points=[];autosize=1;strokeColor=none;fillColor=none;" vertex="1" parent="1">
          <mxGeometry x="320" y="780" width="90" height="40" as="geometry" />
        </mxCell>
        <mxCell id="sZTKMbok_FqmuFl1ryci-26" style="edgeStyle=orthogonalEdgeStyle;rounded=0;orthogonalLoop=1;jettySize=auto;html=1;exitX=0.5;exitY=0;exitDx=0;exitDy=0;exitPerimeter=0;entryX=0.5;entryY=1;entryDx=0;entryDy=0;entryPerimeter=0;" edge="1" parent="1" source="sZTKMbok_FqmuFl1ryci-18" target="sZTKMbok_FqmuFl1ryci-24">
          <mxGeometry relative="1" as="geometry" />
        </mxCell>
        <mxCell id="sZTKMbok_FqmuFl1ryci-28" value="Вывод оставшейся&lt;div&gt;части состояния&lt;/div&gt;&lt;div&gt;до нужной длины&lt;/div&gt;" style="shape=parallelogram;html=1;strokeWidth=2;perimeter=parallelogramPerimeter;whiteSpace=wrap;rounded=1;arcSize=12;size=0.23;" vertex="1" parent="1">
          <mxGeometry x="275" y="850" width="180" height="70" as="geometry" />
        </mxCell>
        <mxCell id="sZTKMbok_FqmuFl1ryci-32" value="Конец" style="strokeWidth=2;html=1;shape=mxgraph.flowchart.terminator;whiteSpace=wrap;" vertex="1" parent="1">
          <mxGeometry x="319.5" y="940" width="85" height="40" as="geometry" />
        </mxCell>
        <mxCell id="sZTKMbok_FqmuFl1ryci-33" style="edgeStyle=orthogonalEdgeStyle;rounded=0;orthogonalLoop=1;jettySize=auto;html=1;exitX=0.5;exitY=1;exitDx=0;exitDy=0;entryX=0.5;entryY=0;entryDx=0;entryDy=0;entryPerimeter=0;" edge="1" parent="1" source="sZTKMbok_FqmuFl1ryci-28" target="sZTKMbok_FqmuFl1ryci-32">
          <mxGeometry relative="1" as="geometry" />
        </mxCell>
      </root>
    </mxGraphModel>
  </diagram>
</mxfile>
